<svg clip-rule="evenodd" fill-rule="evenodd" stroke-linejoin="round" stroke-miterlimit="2" viewBox="0 0 24 24" xmlns="http://www.w3.org/2000/svg"><path d="m2 19v-14c0-.552.447-1 1-1 .542 0 4.418 2.028 9 2.028 4.593 0 8.456-2.028 9-2.028.55 0 1 .447 1 1v14c0 .553-.45 1-1 1-.544 0-4.407-2.028-9-2.028-4.582 0-8.458 2.028-9 2.028-.553 0-1-.448-1-1zm8.316-7.209 2.592 3.237c.258.323.731.375 1.054.116.323-.258.375-.731.117-1.054l-.276-.344 1.084-.815s3.307 4.206 3.307 4.206c.256.325.728.381 1.053.126.325-.256.382-.728.126-1.054l-3.761-4.783c-.252-.321-.715-.381-1.041-.135l-1.703 1.282s-1.954-2.433-1.954-2.433c-.282-.351-.871-.357-1.16-.013l-5.112 6.097c-.266.317-.224.79.093 1.056s.79.225 1.056-.093zm-4.139-4.216c-1.051 0-1.904.853-1.904 1.904s.853 1.905 1.904 1.905 1.904-.854 1.904-1.905-.853-1.904-1.904-1.904zm0 1.3c.334 0 .604.271.604.604 0 .334-.27.605-.604.605-.333 0-.604-.271-.604-.605 0-.333.271-.604.604-.604z" fill-rule="nonzero"/></svg>